<svg width="12" height="14" xmlns="http://www.w3.org/2000/svg">
  <path d="M11.033 6.331a5.43 5.43 0 0 0-1.295-1.8l-.455-.417a.126.126 0 0 0-.203.052l-.203.582c-.127.366-.36.74-.69 1.107a.098.098 0 0 1-.064.03.086.086 0 0 1-.067-.022.092.092 0 0 1-.031-.076c.058-.94-.223-2.001-.84-3.156-.508-.96-1.216-1.708-2.1-2.23l-.646-.38a.125.125 0 0 0-.187.115l.034.75c.023.512-.036.966-.177 1.342-.171.461-.418.89-.734 1.274a4.62 4.62 0 0 1-.742.72A5.51 5.51 0 0 0 1.066 6.12a5.434 5.434 0 0 0-.133 4.536 5.49 5.49 0 0 0 2.928 2.9A5.498 5.498 0 0 0 6 13.984c.742 0 1.46-.143 2.14-.426a5.447 5.447 0 0 0 1.747-1.167A5.409 5.409 0 0 0 11.5 8.533c0-.763-.156-1.503-.467-2.202zM9.14 11.633A4.43 4.43 0 0 1 6 12.92a4.43 4.43 0 0 1-3.14-1.287 4.34 4.34 0 0 1-1.297-3.1c0-.68.153-1.331.454-1.938a4.42 4.42 0 0 1 1.263-1.53c.336-.256.643-.554.915-.887.39-.476.697-1.008.91-1.578a3.75 3.75 0 0 0 .189-.727c.376.347.692.766.956 1.257.522.978.762 1.848.716 2.589a1.156 1.156 0 0 0 2.012.847c.208-.233.388-.47.538-.713.218.28.401.585.546.913a4.33 4.33 0 0 1 .376 1.767c0 1.17-.461 2.272-1.297 3.1z" fill="#8C8C8C" fill-rule="nonzero"/>
</svg>
