<svg width="14" height="12" xmlns="http://www.w3.org/2000/svg">
  <path d="M13.963 5.928L8.425.472a.124.124 0 0 0-.175 0L4.52 4.147a.125.125 0 0 0-.001.176l.001.002.625.616-1.83 1.801a.125.125 0 0 0-.002.177l.001.001.617.608L.977 10.45h-.85a.127.127 0 0 0-.127.125v.863c0 .068.056.124.125.124h5.39a.123.123 0 0 0 .087-.035l1.189-1.182.63.622a.124.124 0 0 0 .176 0l1.83-1.806.626.617a.124.124 0 0 0 .175 0l3.73-3.675a.12.12 0 0 0 .005-.175zM5.09 10.441H2.587l2.1-2.079L5.94 9.596l-.848.846zm2.418-.97L4.831 6.83l1.072-1.056 2.678 2.64L7.51 9.47zm2.633-1.19L6.036 4.236l2.302-2.267 4.106 4.047-2.302 2.265z" fill="#4285F4" fill-rule="nonzero"/>
</svg>
