<svg width="14" height="14" xmlns="http://www.w3.org/2000/svg">
  <path d="M12.35 11.514l.01-.014A6.966 6.966 0 0 0 14 7a6.973 6.973 0 0 0-1.637-4.5l-.011-.013-.05-.057-.02-.022-.063-.074-.002-.001-.072-.08-.001-.001c-.05-.054-.1-.107-.152-.158l-.001-.002-.075-.075-.005-.004-.07-.068-.025-.023-.047-.044-.016-.016A6.966 6.966 0 0 0 7 0a6.973 6.973 0 0 0-4.755 1.862l-.015.016-.047.045-.025.024-.07.067-.005.005-.075.075-.002.001-.151.158-.002.002a3.309 3.309 0 0 0-.072.08H1.78a1.436 1.436 0 0 0-.064.074l-.02.022c-.016.019-.032.04-.05.058-.002.005-.007.008-.01.013A6.973 6.973 0 0 0 0 7c0 1.714.616 3.283 1.638 4.5l.01.014.049.058.019.022.064.073.001.003c.024.027.047.053.072.078l.002.002.15.158.001.001.074.074.004.005A6.987 6.987 0 0 0 7 14a6.973 6.973 0 0 0 4.91-2.012l.006-.005c.025-.025.05-.049.073-.074l.002-.001a4.73 4.73 0 0 0 .15-.158l.001-.002c.024-.026.049-.051.072-.078 0-.001.002-.001.002-.003.022-.023.043-.048.064-.073l.018-.022c.02-.02.036-.04.052-.058zm.064-2.228c-.216.51-.5.981-.847 1.41a6.939 6.939 0 0 0-1.273-.874c.181-.733.293-1.538.323-2.384h2.242a5.842 5.842 0 0 1-.445 1.848zm.445-2.723h-2.242a11.681 11.681 0 0 0-.323-2.385 6.939 6.939 0 0 0 1.273-.873 5.842 5.842 0 0 1 1.292 3.258zM9.286 1.585a5.84 5.84 0 0 1 1.681 1.081c-.289.247-.6.464-.928.653-.245-.703-.56-1.314-.925-1.803.058.022.116.046.172.069zM7.87 12.533a1.768 1.768 0 0 1-.433.256V9.891a6.08 6.08 0 0 1 1.808.409c-.13.384-.28.74-.453 1.06-.272.506-.59.91-.922 1.173zm.922-9.892c.172.321.324.676.453 1.059a6.08 6.08 0 0 1-1.807.41V1.211c.143.058.289.143.432.257.332.26.65.665.922 1.172zM7.438 9.014V7.438h2.304c-.025.69-.11 1.36-.255 1.996l-.004.02a6.953 6.953 0 0 0-2.046-.44zm0-2.451V4.986a6.953 6.953 0 0 0 2.045-.44l.005.02c.143.636.23 1.304.254 1.997H7.437zm-.875.875v1.576a6.953 6.953 0 0 0-2.046.44l-.005-.02a10.835 10.835 0 0 1-.254-1.996h2.304zm-2.305-.875c.025-.691.11-1.361.255-1.997l.004-.02a6.943 6.943 0 0 0 2.045.44v1.577H4.258zM6.562 9.89v2.896a1.748 1.748 0 0 1-.432-.256c-.332-.26-.652-.667-.924-1.173a7.06 7.06 0 0 1-.453-1.06 6.098 6.098 0 0 1 1.81-.407zm0-5.782A6.08 6.08 0 0 1 4.755 3.7c.13-.384.28-.74.453-1.06.272-.506.59-.912.923-1.173.144-.112.288-.198.433-.256v2.898h-.002zM4.715 1.586c.058-.024.114-.047.172-.069-.366.49-.68 1.1-.925 1.803a6.057 6.057 0 0 1-.928-.653 5.84 5.84 0 0 1 1.681-1.081zM1.586 4.714c.216-.51.5-.981.847-1.41.389.337.815.63 1.273.874a11.681 11.681 0 0 0-.323 2.385H1.14c.046-.64.196-1.26.445-1.849zM1.14 7.437h2.242c.03.847.142 1.652.323 2.385a6.939 6.939 0 0 0-1.273.873A5.842 5.842 0 0 1 1.14 7.437zm3.573 4.977a5.84 5.84 0 0 1-1.681-1.081c.289-.247.6-.464.928-.653.245.703.56 1.314.925 1.803a5.624 5.624 0 0 1-.172-.069zm4.572 0c-.058.024-.114.047-.172.069.366-.49.68-1.1.925-1.803.328.187.64.406.928.653a5.84 5.84 0 0 1-1.681 1.081z" fill="#4285F4" fill-rule="nonzero"/>
</svg>
