<svg width="14" height="14" xmlns="http://www.w3.org/2000/svg">
  <path d="M12.781 3.252V1.25a.5.5 0 0 0-.5-.5H1.72a.5.5 0 0 0-.5.5v2.002a.5.5 0 0 0-.469.498v2.058a2.766 2.766 0 0 0 .469 1.551v5.391a.5.5 0 0 0 .5.5H12.28a.5.5 0 0 0 .5-.5V7.36a2.793 2.793 0 0 0 .469-1.552V3.75a.5.5 0 0 0-.469-.498zM2.344 1.875h9.312V3.25H2.344V1.875zM8 12.127H6V10.5h2v1.627zm3.656 0H9V10a.5.5 0 0 0-.5-.5h-3a.5.5 0 0 0-.5.5v2.127H2.344V8.342a2.816 2.816 0 0 0 1.24.283 2.822 2.822 0 0 0 1.705-.566.01.01 0 0 1 .01 0 2.816 2.816 0 0 0 1.705.566 2.822 2.822 0 0 0 1.704-.566.01.01 0 0 1 .01 0 2.816 2.816 0 0 0 1.705.566 2.822 2.822 0 0 0 1.24-.283v3.785h-.007zm.469-6.32A1.7 1.7 0 0 1 10.417 7.5a1.711 1.711 0 0 1-1.487-.858.25.25 0 0 0-.217-.126h-.01a.252.252 0 0 0-.217.126A1.707 1.707 0 0 1 7 7.5c-.636 0-1.19-.344-1.484-.855a.258.258 0 0 0-.447 0c-.296.511-.85.855-1.486.855a1.7 1.7 0 0 1-1.708-1.692V4.383c0-.005.003-.008.008-.008h10.234c.005 0 .008.003.008.008v1.425z" fill="#8C8C8C" fill-rule="nonzero"/>
</svg>
