<svg width="14" height="14" xmlns="http://www.w3.org/2000/svg">
  <path d="M1.625 6.878A5.363 5.363 0 0 1 3.197 3.2a5.347 5.347 0 0 1 3.802-1.575A5.334 5.334 0 0 1 10.796 3.2c.155.155.3.319.434.49l-.94.735a.125.125 0 0 0 .046.22l2.746.672a.125.125 0 0 0 .155-.12l.012-2.827a.124.124 0 0 0-.202-.098l-.88.689A6.561 6.561 0 0 0 .437 6.87.125.125 0 0 0 .563 7H1.5a.125.125 0 0 0 .125-.122zM13.438 7H12.5a.125.125 0 0 0-.125.122 5.346 5.346 0 0 1-1.572 3.678 5.35 5.35 0 0 1-3.801 1.575 5.347 5.347 0 0 1-4.235-2.066l.94-.734a.125.125 0 0 0-.046-.22L.916 8.683a.125.125 0 0 0-.155.12L.75 11.631c0 .105.12.164.202.099l.88-.69a6.561 6.561 0 0 0 11.73-3.912.125.125 0 0 0-.125-.128z" fill="#8C8C8C" fill-rule="nonzero"/>
</svg>
