<svg width="14" height="14" xmlns="http://www.w3.org/2000/svg">
  <path d="M10.975 10.63c.683 0 1.24-.566 1.24-1.258 0-.836-1.24-2.2-1.24-2.2s-1.24 1.364-1.24 2.2c0 .692.557 1.258 1.24 1.258zm-5.892-.69c.11.112.29.112.4 0l4.001-4c.111-.11.111-.29 0-.4l-4-4a.255.255 0 0 0-.03-.026L4.23.292a.142.142 0 0 0-.2 0l-.75.75a.142.142 0 0 0 0 .2l1.05 1.05-3.247 3.249c-.11.11-.11.29 0 .4l3.999 4zm.201-7.009L8.08 5.727H2.49L5.285 2.93zm7.841 8.819H.875a.125.125 0 0 0-.125.125v1.25c0 .069.056.125.125.125h12.25a.125.125 0 0 0 .125-.125v-1.25a.125.125 0 0 0-.125-.125z" fill="#8C8C8C" fill-rule="nonzero"/>
</svg>
