<svg width="14" height="12" xmlns="http://www.w3.org/2000/svg">
  <path d="M13.5.5H.5A.5.5 0 0 0 0 1v10a.5.5 0 0 0 .5.5h13a.5.5 0 0 0 .5-.5V1a.5.5 0 0 0-.5-.5zm-.625 9.875H1.125v-.623l2.164-2.568 2.345 2.782L9.283 5.64 12.875 9.9v.475zm0-2.028L9.378 4.2a.124.124 0 0 0-.19 0L5.633 8.412l-2.25-2.667a.124.124 0 0 0-.19 0L1.125 8.198V1.625h11.75v6.722zM3.75 5.125a1.375 1.375 0 1 0 0-2.75 1.375 1.375 0 0 0 0 2.75zm0-1.813a.437.437 0 1 1 .001.874.437.437 0 0 1-.001-.873z" fill="#8C8C8C" fill-rule="nonzero"/>
</svg>
