<svg width="14" height="14" xmlns="http://www.w3.org/2000/svg">
  <path d="M12.563 1.5h-1.438V.875A.125.125 0 0 0 11 .75H3a.125.125 0 0 0-.125.125V1.5H1.437a.688.688 0 0 0-.687.688V4.5c0 1.277.938 2.338 2.16 2.531a4.005 4.005 0 0 0 3.527 3.446v1.643H3.376a.5.5 0 0 0-.5.5v.505c0 .069.056.125.125.125h8a.125.125 0 0 0 .125-.125v-.505a.5.5 0 0 0-.5-.5H7.562v-1.643a4.005 4.005 0 0 0 3.529-3.446A2.567 2.567 0 0 0 13.25 4.5V2.187a.688.688 0 0 0-.688-.687zm-10.688 3V2.625h1v3.244c-.58-.185-1-.728-1-1.369zM10 6.5c0 .767-.298 1.49-.842 2.033a2.856 2.856 0 0 1-2.033.842h-.25c-.767 0-1.49-.298-2.033-.842A2.856 2.856 0 0 1 4 6.5V1.875h6V6.5zm2.125-2c0 .64-.42 1.184-1 1.369V2.625h1V4.5z" fill="#4285F4" fill-rule="nonzero"/>
</svg>
