<svg width="14" height="14" xmlns="http://www.w3.org/2000/svg">
  <path d="M13.242 9.948a.125.125 0 0 0-.16-.075l-.957.349v-8.41c0-.587-.475-1.062-1.063-1.062H2.938c-.588 0-1.063.475-1.063 1.063v8.409l-.958-.349a.134.134 0 0 0-.042-.007.125.125 0 0 0-.125.125v.93c0 .052.033.1.083.118l5.995 2.181c.111.04.231.04.342 0l5.997-2.18a.126.126 0 0 0 .083-.117v-.93a.136.136 0 0 0-.008-.045zM7 12.086L3 10.63V1.875h8v8.756l-4 1.455zm2.322-8.211H8.47a.123.123 0 0 0-.11.069L7.035 6.58h-.052L5.661 3.944a.125.125 0 0 0-.111-.069h-.87c-.02 0-.04.005-.06.016a.124.124 0 0 0-.05.168l1.624 2.994h-.89a.125.125 0 0 0-.126.125v.424c0 .068.056.125.125.125h1.188v.609H5.303a.125.125 0 0 0-.125.125v.423c0 .07.056.125.125.125h1.188V10c0 .069.056.125.125.125h.78A.125.125 0 0 0 7.52 10v-.992h1.193a.125.125 0 0 0 .125-.125v-.424a.125.125 0 0 0-.125-.125H7.52v-.609h1.193a.125.125 0 0 0 .125-.125v-.423a.125.125 0 0 0-.125-.125h-.9l1.62-2.994a.135.135 0 0 0 .015-.06.127.127 0 0 0-.126-.123z" fill="#4285F4" fill-rule="nonzero"/>
</svg>
