<svg width="12" height="14" xmlns="http://www.w3.org/2000/svg">
  <path d="M8.75 3.875v-.75A.125.125 0 0 0 8.625 3h-6a.125.125 0 0 0-.125.125v.75c0 .069.056.125.125.125h6a.125.125 0 0 0 .125-.125zM2.625 5.25a.125.125 0 0 0-.125.125v.75c0 .069.056.125.125.125H5.5a.125.125 0 0 0 .125-.125v-.75A.125.125 0 0 0 5.5 5.25H2.625zm2.25 7.063H1.25v-11H10v5.375c0 .068.056.125.125.125H11a.125.125 0 0 0 .125-.125v-6a.5.5 0 0 0-.5-.5h-10a.5.5 0 0 0-.5.5v12.25a.5.5 0 0 0 .5.5h4.25A.125.125 0 0 0 5 13.312v-.874a.125.125 0 0 0-.125-.126zm6.964.804l-1.458-1.458a2.75 2.75 0 1 0-.681.637l1.48 1.48a.122.122 0 0 0 .087.037.126.126 0 0 0 .088-.036l.484-.485a.124.124 0 0 0 0-.175zM8.187 11.75a1.75 1.75 0 1 1 0-3.5 1.75 1.75 0 1 1 0 3.5z" fill="#4285F4" fill-rule="nonzero"/>
</svg>
