<svg width="14" height="12" xmlns="http://www.w3.org/2000/svg">
  <path d="M13.5.516H9.925c-.767 0-1.517.22-2.163.636L7 1.64l-.763-.49A3.988 3.988 0 0 0 4.075.517H.5a.5.5 0 0 0-.5.5V9.89a.5.5 0 0 0 .5.5h3.575c.767 0 1.517.22 2.162.636l.694.446a.13.13 0 0 0 .067.02.117.117 0 0 0 .068-.02l.693-.446a4.006 4.006 0 0 1 2.166-.636H13.5a.5.5 0 0 0 .5-.5V1.016a.5.5 0 0 0-.5-.5zm-9.425 8.75h-2.95V1.64h2.95c.553 0 1.09.157 1.555.456l.762.489.108.07v7.219a5.113 5.113 0 0 0-2.425-.61zm8.8 0h-2.95c-.85 0-1.681.209-2.425.609V2.656l.108-.07.762-.49a2.868 2.868 0 0 1 1.555-.455h2.95v7.625zM5.202 3.64H2.298c-.06 0-.11.053-.11.117v.703c0 .064.05.117.11.117H5.2c.06 0 .11-.053.11-.117v-.703a.113.113 0 0 0-.108-.117zm3.486.117v.703c0 .064.05.117.11.117H11.7c.06 0 .11-.053.11-.117v-.703c0-.064-.05-.117-.11-.117H8.798c-.06 0-.11.053-.11.117zm-3.486 2.07H2.298c-.06 0-.11.053-.11.117v.703c0 .065.05.118.11.118H5.2c.06 0 .11-.053.11-.118v-.703a.113.113 0 0 0-.108-.117zm6.5 0H8.798c-.06 0-.11.053-.11.117v.703c0 .065.05.118.11.118H11.7c.06 0 .11-.053.11-.118v-.703a.113.113 0 0 0-.108-.117z" fill="#8C8C8C" fill-rule="nonzero"/>
</svg>
