<svg width="14" height="14" xmlns="http://www.w3.org/2000/svg">
  <path d="M12.878 10.936a4.712 4.712 0 0 0-1.35-.944 3.118 3.118 0 0 0 1.16-2.43 3.144 3.144 0 0 0-3.176-3.125 3.127 3.127 0 0 0-1.918 5.555c-.496.23-.952.545-1.35.944a4.657 4.657 0 0 0-1.369 3.186.125.125 0 0 0 .125.128h.875A.124.124 0 0 0 6 14.13a3.532 3.532 0 0 1 1.042-2.399 3.541 3.541 0 0 1 2.52-1.043c.952 0 1.847.37 2.52 1.043a3.546 3.546 0 0 1 1.043 2.399c.002.067.058.12.125.12h.875c.07 0 .127-.058.125-.128a4.646 4.646 0 0 0-1.372-3.186zM9.562 9.563a1.983 1.983 0 0 1-1.414-.586 2.003 2.003 0 0 1 1.394-3.414 2.012 2.012 0 0 1 1.422.571c.388.38.6.888.6 1.428 0 .535-.208 1.036-.586 1.415a1.99 1.99 0 0 1-1.415.585zM5.649 7.974a4.006 4.006 0 0 1 .046-1.14.126.126 0 0 0-.07-.137 1.993 1.993 0 0 1-1.181-1.883 1.99 1.99 0 0 1 .566-1.337 1.99 1.99 0 0 1 1.457-.605 1.998 1.998 0 0 1 1.662.92.125.125 0 0 0 .145.05c.275-.096.566-.163.864-.195a.125.125 0 0 0 .099-.18A3.13 3.13 0 0 0 6.49 1.75c-1.733-.027-3.177 1.394-3.177 3.123 0 .982.452 1.857 1.16 2.43-.497.23-.955.547-1.352.944a4.647 4.647 0 0 0-1.372 3.187.125.125 0 0 0 .125.129h.877a.124.124 0 0 0 .125-.12 3.532 3.532 0 0 1 1.042-2.4 3.527 3.527 0 0 1 1.636-.932.125.125 0 0 0 .093-.136z" fill="#4285F4"/>
</svg>
