<svg width="14" height="12" xmlns="http://www.w3.org/2000/svg">
  <path d="M13.5.5H.5A.5.5 0 0 0 0 1v10a.5.5 0 0 0 .5.5h13a.5.5 0 0 0 .5-.5V1a.5.5 0 0 0-.5-.5zm-.625 9.875H1.125v-8.75h11.75v8.75zm-4.34-4.938h1.93c.02 0 .035-.056.035-.125v-.75c0-.068-.016-.125-.036-.125H8.536c-.02 0-.036.057-.036.125v.75c0 .07.016.125.036.125zm.076 2.25h2.901c.061 0 .111-.056.111-.125v-.75c0-.068-.05-.125-.11-.125H8.61c-.061 0-.111.057-.111.125v.75c0 .07.05.125.11.125zM2.5 8.517h.686a.125.125 0 0 0 .123-.118 1.53 1.53 0 0 1 1.52-1.414c.8 0 1.458.625 1.518 1.414a.125.125 0 0 0 .123.118h.686c.072 0 .128-.06.125-.132a2.472 2.472 0 0 0-1.165-1.97c.282-.31.454-.725.454-1.18 0-.967-.78-1.75-1.74-1.75-.961 0-1.74.783-1.74 1.75 0 .455.17.868.454 1.18a2.47 2.47 0 0 0-1.166 1.97.12.12 0 0 0 .122.132zm2.328-4.094a.81.81 0 0 1 .808.812.81.81 0 0 1-.808.813.81.81 0 0 1-.808-.813.81.81 0 0 1 .808-.812z" fill="#8C8C8C" fill-rule="nonzero"/>
</svg>
