<?xml version="1.0" encoding="UTF-8"?>
<svg width="12px" height="14px" viewBox="0 0 12 14" version="1.1" xmlns="http://www.w3.org/2000/svg" xmlns:xlink="http://www.w3.org/1999/xlink">
    <!-- Generator: Sketch 58 (84663) - https://sketch.com -->
    <title>icon_9_hover</title>
    <desc>Created with Sketch.</desc>
    <g id="页面1" stroke="none" stroke-width="1" fill="none" fill-rule="evenodd">
        <g id="1" transform="translate(-2.000000, -353.000000)" fill-rule="nonzero">
            <g id="icon_9_hover" transform="translate(0.000000, 352.000000)">
                <rect id="矩形" fill="#000000" opacity="0" x="0" y="0" width="16" height="16"></rect>
                <path d="M13.0328125,7.33125 C12.728125,6.646875 12.2921875,6.040625 11.7375,5.53125 L11.2828125,5.1140625 C11.215625,5.0546875 11.109375,5.08125 11.0796875,5.165625 L10.8765625,5.7484375 C10.75,6.1140625 10.5171875,6.4875 10.1875,6.8546875 C10.165625,6.878125 10.140625,6.884375 10.1234375,6.8859375 C10.10625,6.8875 10.0796875,6.884375 10.05625,6.8625 C10.034375,6.84375 10.0234375,6.815625 10.025,6.7875 C10.0828125,5.846875 9.8015625,4.7859375 9.1859375,3.63125 C8.6765625,2.671875 7.96875,1.9234375 7.084375,1.4015625 L6.4390625,1.021875 C6.3546875,0.971875 6.246875,1.0375 6.2515625,1.1359375 L6.2859375,1.8859375 C6.309375,2.3984375 6.25,2.8515625 6.109375,3.228125 C5.9375,3.6890625 5.690625,4.1171875 5.375,4.5015625 C5.153125,4.7703125 4.9046875,5.0125 4.6328125,5.221875 C3.975,5.7265625 3.4328125,6.384375 3.065625,7.1203125 C2.6953125,7.8640625 2.5,8.696875 2.5,9.53125 C2.5,10.26875 2.6453125,10.9828125 2.9328125,11.65625 C3.2109375,12.3046875 3.6078125,12.8890625 4.1125,13.3890625 C4.61875,13.8890625 5.20625,14.2828125 5.8609375,14.55625 C6.5390625,14.840625 7.2578125,14.984375 8,14.984375 C8.7421875,14.984375 9.4609375,14.840625 10.1390625,14.5578125 C10.79375,14.284375 11.3828125,13.8921875 11.8875,13.390625 C12.39375,12.890625 12.790625,12.30625 13.0671875,11.6578125 C13.3546875,10.984375 13.5,10.2703125 13.5,9.5328125 C13.5,8.7703125 13.34375,8.0296875 13.0328125,7.33125 Z M11.140625,12.6328125 C10.3015625,13.4640625 9.1875,13.9203125 8,13.9203125 C6.8125,13.9203125 5.6984375,13.4640625 4.859375,12.6328125 C4.0234375,11.803125 3.5625,10.703125 3.5625,9.5328125 C3.5625,8.853125 3.715625,8.2015625 4.0171875,7.5953125 C4.3109375,7.003125 4.7484375,6.4734375 5.2796875,6.065625 C5.615625,5.809375 5.9234375,5.5109375 6.1953125,5.178125 C6.5859375,4.7015625 6.8921875,4.1703125 7.1046875,3.6 C7.1890625,3.3734375 7.253125,3.13125 7.29375,2.8734375 C7.6703125,3.2203125 7.9859375,3.6390625 8.25,4.1296875 C8.771875,5.1078125 9.0125,5.978125 8.965625,6.71875 C8.94375,7.075 9.0828125,7.4140625 9.346875,7.653125 C9.5765625,7.859375 9.8734375,7.9640625 10.18125,7.946875 C10.4890625,7.93125 10.771875,7.7953125 10.978125,7.565625 C11.1859375,7.3328125 11.365625,7.0953125 11.515625,6.853125 C11.734375,7.1328125 11.9171875,7.4375 12.0625,7.765625 C12.3109375,8.325 12.4375,8.9203125 12.4375,9.5328125 C12.4375,10.703125 11.9765625,11.8046875 11.140625,12.6328125 Z" id="形状" fill="#4285F4"></path>
            </g>
        </g>
    </g>
</svg>