<?xml version="1.0" encoding="UTF-8"?>
<svg width="12px" height="12px" viewBox="0 0 12 12" version="1.1" xmlns="http://www.w3.org/2000/svg" xmlns:xlink="http://www.w3.org/1999/xlink">
    <!-- Generator: Sketch 58 (84663) - https://sketch.com -->
    <title>icon_rebangzhishu_hover</title>
    <desc>Created with Sketch.</desc>
    <g id="页面1" stroke="none" stroke-width="1" fill="none" fill-rule="evenodd">
        <g id="1-0-首页" transform="translate(-88.000000, -580.000000)" fill-rule="nonzero">
            <g id="icon_rebangzhishu_hover" transform="translate(86.000000, 578.000000)">
                <rect id="矩形" fill="#000000" opacity="0" x="0" y="0" width="16" height="16"></rect>
                <path d="M13.875,12.375 L3.125,12.375 L3.125,2.625 C3.125,2.55625 3.06875,2.5 3,2.5 L2.125,2.5 C2.05625,2.5 2,2.55625 2,2.625 L2,13.375 C2,13.44375 2.05625,13.5 2.125,13.5 L13.875,13.5 C13.94375,13.5 14,13.44375 14,13.375 L14,12.5 C14,12.43125 13.94375,12.375 13.875,12.375 Z M4.778125,9.9640625 C4.8265625,10.0125 4.9046875,10.0125 4.9546875,9.9640625 L7.115625,7.8140625 L9.109375,9.8203125 C9.1578125,9.86875 9.2375,9.86875 9.2859375,9.8203125 L13.5890625,5.51875 C13.6375,5.4703125 13.6375,5.390625 13.5890625,5.3421875 L12.9703125,4.7234375 C12.921875,4.675 12.8421875,4.675 12.79375,4.7234375 L9.2,8.315625 L7.209375,6.3125 C7.1609375,6.2640625 7.08125,6.2640625 7.0328125,6.3125 L4.1609375,9.1671875 C4.1125,9.215625 4.1125,9.2953125 4.1609375,9.34375 L4.778125,9.9640625 Z" id="形状" fill="#4285F4"></path>
            </g>
        </g>
    </g>
</svg>